<svg xmlns="http://www.w3.org/2000/svg" version="1.1" xmlns:xlink="http://www.w3.org/1999/xlink" xmlns:svgjs="http://svgjs.dev/svgjs" width="1000" height="411" viewBox="0 0 1000 411"><g transform="matrix(1,0,0,1,-0.6060606060606233,-0.08083093571150357)"><svg viewBox="0 0 396 163" data-background-color="#ffffff" preserveAspectRatio="xMidYMid meet" height="411" width="1000" xmlns="http://www.w3.org/2000/svg" xmlns:xlink="http://www.w3.org/1999/xlink"><g id="tight-bounds" transform="matrix(1,0,0,1,0.2400000000000091,0.032057037763934204)"><svg viewBox="0 0 395.52 162.93588592447213" height="162.93588592447213" width="395.52"><g><svg viewBox="0 0 395.52 162.93588592447213" height="162.93588592447213" width="395.52"><g transform="matrix(1,0,0,1,0,100.70091416487763)"><svg viewBox="0 0 395.52 62.234971759594494" height="62.234971759594494" width="395.52"><g id="textblocktransform"><svg viewBox="0 0 395.52 62.234971759594494" height="62.234971759594494" width="395.52" id="textblock"><g><svg viewBox="0 0 395.52 62.234971759594494" height="62.234971759594494" width="395.52"><g transform="matrix(1,0,0,1,0,0)"><svg width="395.52" viewBox="-0.42000001668930054 -41.939998626708984 337.1400146484375 53.04999923706055" height="62.234971759594494" data-palette-color="#372e18"><path d="M-0.42-1.25L0.78-4.44Q0.78-4.44 1.34-4.17L1.34-4.17Q4-2.91 6.98-2.91L6.98-2.91Q9.57-2.91 10.64-4.52L10.64-4.52Q11.67-6.08 11.67-9.86L11.67-9.86 11.67-37.35 15.77-37.35 15.77-12.6Q15.77-8.03 15.39-6.15 15.01-4.27 14.44-3.13 13.87-1.98 12.89-1.17L12.89-1.17Q10.89 0.49 6.98 0.49L6.98 0.49Q3.61 0.49 0.66-0.73L0.66-0.73Q-0.05-1.03-0.42-1.25L-0.42-1.25ZM47.82-5.03L49.02-1.54Q43.97 0.49 37.86 0.49L37.86 0.49Q34.32 0.49 31.86-0.24L31.86-0.24Q27.93-1.37 26.63-4.88L26.63-4.88Q25.44-8.18 25.44-14.65L25.44-14.65 25.44-15.89Q25.44-23.63 28.66-26.76L28.66-26.76Q31.56-29.54 38.35-29.54L38.35-29.54Q44.97-29.54 47.39-26.27L47.39-26.27Q48.56-24.68 48.94-22.42 49.31-20.17 49.31-18.12L49.31-18.12Q49.31-14.92 49.17-13.16L49.17-13.16Q45.73-13.01 42.99-13.01L42.99-13.01Q42.99-13.01 39.06-13.01L39.06-13.01Q32.91-13.01 29.59-13.55L29.59-13.55Q29.59-7.93 31-5.71L31-5.71Q32.74-3 37.91-3 43.09-3 47.82-5.03L47.82-5.03ZM29.59-16.41L45.19-16.41 45.19-18.75Q45.19-22.58 43.7-24.22L43.7-24.22Q42.04-26.05 37.96-26.05L37.96-26.05Q33.08-26.05 31.3-23.93L31.3-23.93Q29.59-21.9 29.59-16.41L29.59-16.41ZM65.42 0L56.39-29.05 60.74-29.05 66.89-7.71 67.99-3.05 68.79-6.96 75.14-29.05 79.15-29.05 85.4-7.71 86.47-3 87.25-6.98 93.31-29.05 97.7-29.05 89.11 0 83.76 0 78.19-18.63 77.07-24.34 76.07-18.63 70.53 0 65.42 0ZM126.9-5.03L128.09-1.54Q123.04 0.49 116.94 0.49L116.94 0.49Q113.4 0.49 110.93-0.24L110.93-0.24Q107-1.37 105.71-4.88L105.71-4.88Q104.51-8.18 104.51-14.65L104.51-14.65 104.51-15.89Q104.51-23.63 107.73-26.76L107.73-26.76Q110.64-29.54 117.42-29.54L117.42-29.54Q124.04-29.54 126.46-26.27L126.46-26.27Q127.63-24.68 128.01-22.42 128.39-20.17 128.39-18.12L128.39-18.12Q128.39-14.92 128.24-13.16L128.24-13.16Q124.8-13.01 122.06-13.01L122.06-13.01Q122.06-13.01 118.13-13.01L118.13-13.01Q111.98-13.01 108.66-13.55L108.66-13.55Q108.66-7.93 110.08-5.71L110.08-5.71Q111.81-3 116.98-3 122.16-3 126.9-5.03L126.9-5.03ZM108.66-16.41L124.26-16.41 124.26-18.75Q124.26-22.58 122.77-24.22L122.77-24.22Q121.11-26.05 117.03-26.05L117.03-26.05Q112.15-26.05 110.37-23.93L110.37-23.93Q108.66-21.9 108.66-16.41L108.66-16.41ZM139.57 0L139.52-41.5 143.54-41.85 143.54 0 139.57 0ZM165.73-25.51L165.73-25.51Q162.61-25.51 159.36-22.39L159.36-22.39 159.36 0 155.31 0 155.31-29.05 158.87-29.05 159.26-25.2Q160.41-26.98 161.74-27.98 163.07-28.98 163.93-29.2L163.93-29.2Q165.15-29.54 166.25-29.54 167.35-29.54 169.01-29.1L169.01-29.1 168.64-25.22Q167.39-25.51 165.73-25.51ZM174.42 10.21L175.52 7.03Q177.3 7.67 178.44 7.67 179.57 7.67 179.93 7.6 180.28 7.54 180.65 7.35L180.65 7.35Q181.5 6.88 181.92 5.83L181.92 5.83Q182.94 3.34 183.7 0.37L183.7 0.37 172.49-29.05 177.01-29.05 184.58-7.64 185.73-3.88 186.78-7.67 193.47-29.05 197.71-29.05 185.46 6.88Q184.12 11.08 179.26 11.08L179.26 11.08Q176.18 11.08 174.42 10.21L174.42 10.21ZM214.36-2.47L215.97-5.88Q221.51-2.95 226.81-2.95L226.81-2.95Q232.96-2.95 234.01-6.88L234.01-6.88Q234.36-8.18 234.36-9.86L234.36-9.86 234.36-10.82Q234.36-12.52 234.11-13.57 233.87-14.62 233.09-15.28L233.09-15.28Q231.82-16.38 227.08-17.11L227.08-17.11Q222.86-17.77 221.24-18.36 219.63-18.95 218.6-19.64 217.56-20.34 216.83-21.39L216.83-21.39Q215.31-23.58 215.31-27.47L215.31-27.47 215.31-27.71Q215.31-35.77 222-37.35L222-37.35Q224.13-37.84 226.81-37.84L226.81-37.84 227.13-37.84Q233.4-37.84 237.38-36.04L237.38-36.04 236.11-32.3Q231.3-34.38 227.25-34.38L227.25-34.38 227.03-34.38Q222.56-34.38 220.88-32.69L220.88-32.69Q219.46-31.27 219.46-27.78L219.46-27.78 219.46-27.69Q219.46-23.71 221.66-22.46L221.66-22.46Q223.15-21.66 226.99-21.04 230.84-20.43 232.72-20.01 234.6-19.58 235.92-18.6L235.92-18.6Q238.65-16.55 238.65-10.82L238.65-10.82 238.65-10.5Q238.65-1.73 231.6-0.05L231.6-0.05Q229.42 0.49 227.49 0.49 225.57 0.49 223.99 0.35 222.42 0.22 220.78-0.12L220.78-0.12Q216.95-0.9 214.36-2.47L214.36-2.47ZM260.6-25.76L260.6-25.76Q255.74-25.76 250.95-22.95L250.95-22.95 250.95 0 246.9 0 246.9-41.55 250.86-41.94 250.86-26.05Q253.37-28.2 257.4-29.15L257.4-29.15Q259.01-29.54 261.21-29.54 263.41-29.54 265.07-29.04 266.73-28.54 267.7-27.44L267.7-27.44Q269.46-25.46 269.46-20.24L269.46-20.24 269.46 0 265.36 0 265.36-19.51Q265.36-23.02 264.67-24.04 263.99-25.05 263.05-25.4 262.11-25.76 260.6-25.76ZM279.32-14.45L279.32-14.45Q279.32-20 279.88-22.19 280.44-24.39 281.26-25.67 282.08-26.95 283.47-27.81L283.47-27.81Q286.25-29.54 291.7-29.54L291.7-29.54Q299.56-29.54 301.81-25.66L301.81-25.66Q303.15-23.32 303.34-19.04L303.34-19.04Q303.42-17.02 303.42-14.58 303.42-12.13 303.26-10.02 303.1-7.91 302.64-6.23 302.17-4.54 301.34-3.28 300.51-2.03 299.14-1.17L299.14-1.17Q296.46 0.49 291.31 0.49L291.31 0.49Q283.59 0.49 281.18-3.32L281.18-3.32Q279.69-5.69 279.44-9.96L279.44-9.96Q279.32-12.01 279.32-14.45ZM285.96-4.27Q286.84-3.61 288.17-3.28 289.5-2.95 291.81-2.95 294.12-2.95 295.69-3.61 297.27-4.27 298.06-5.73 298.85-7.18 299.06-9.5 299.27-11.82 299.27-14.89 299.27-17.97 299.08-20.02 298.9-22.07 298.17-23.41L298.17-23.41Q296.7-26.05 291.65-26.05L291.65-26.05Q286.3-26.05 284.69-23.41L284.69-23.41Q283.89-22.07 283.67-20 283.45-17.92 283.45-15.48 283.45-13.04 283.51-11.34 283.57-9.64 283.83-8.29 284.08-6.93 284.58-5.93 285.08-4.93 285.96-4.27ZM317.36-1.73L317.36-1.73 317.36 11.11 313.3 11.11 313.3-29.05 316.6-29.05 317.06-26.05Q319.92-28.2 324.51-29.2L324.51-29.2Q326.17-29.54 328.12-29.54 330.08-29.54 331.58-29.03 333.08-28.52 334.05-27.6 335.03-26.68 335.57-25.42 336.11-24.15 336.37-22.66L336.37-22.66Q336.72-20.61 336.72-16.11L336.72-16.11 336.72-15.55Q336.72-9.84 336.33-7.64 335.93-5.44 335.3-4.02 334.66-2.59 333.54-1.59L333.54-1.59Q331.22 0.49 326.36 0.49 321.51 0.49 317.36-1.73ZM317.36-22.92L317.36-5.08Q321.51-3.17 326.07-3.17L326.07-3.17Q329.05-3.17 330.42-4.27L330.42-4.27Q332.27-5.79 332.49-11.33L332.49-11.33Q332.57-13.16 332.57-15.53L332.57-15.53 332.57-16.06Q332.57-21.68 331.59-23.58L331.59-23.58Q330.49-25.76 327.05-25.76L327.05-25.76 326.68-25.76Q323.09-25.76 319.24-23.97L319.24-23.97Q318.11-23.46 317.36-22.92L317.36-22.92Z" opacity="1" transform="matrix(1,0,0,1,0,0)" fill="#372e18" class="undefined-text-0" data-fill-palette-color="primary" id="text-0"></path></svg></g></svg></g></svg></g></svg></g><g transform="matrix(1,0,0,1,154.7556345141202,0)"><svg viewBox="0 0 86.00873097175959 86.0087309717596" height="86.0087309717596" width="86.00873097175959"><g><svg></svg></g><g id="icon-0"><svg viewBox="0 0 86.00873097175959 86.0087309717596" height="86.0087309717596" width="86.00873097175959"><g><path xmlns="http://www.w3.org/2000/svg" d="M25.803 86.009c-14.25 0-25.803-11.552-25.803-25.803v-34.403c0-14.25 11.552-25.803 25.803-25.803h34.403c14.25 0 25.803 11.552 25.803 25.803v34.403c0 14.25-11.552 25.803-25.803 25.803z" fill="#372e18" fill-rule="nonzero" stroke="none" stroke-width="1" stroke-linecap="butt" stroke-linejoin="miter" stroke-miterlimit="10" stroke-dasharray="" stroke-dashoffset="0" font-family="none" font-weight="none" font-size="none" text-anchor="none" style="mix-blend-mode: normal" data-fill-palette-color="accent"></path></g><g transform="matrix(1,0,0,1,17.201746194351916,21.68675013712609)"><svg viewBox="0 0 51.60523858305576 42.635230697507424" height="42.635230697507424" width="51.60523858305576"><g><svg xmlns="http://www.w3.org/2000/svg" data-name="Layer 1" viewBox="3.4000000953674316 11.5 93.19999694824219 77" x="0" y="0" height="42.635230697507424" width="51.60523858305576" class="icon-s-0" data-fill-palette-color="quaternary" id="s-0"><g data-name="Group" fill="#fbcd08" data-fill-palette-color="quaternary"><path data-name="Compound Path" d="M79.5 11.5H20.5L3.4 39 50 88.5 96.6 39Zm-3.3 6L87.5 35.6H70.9L67 17.5ZM39 17.5H60.9l3.9 18.1H35.4Zm-15.2 0h9.1L29.3 35.6H12.5ZM14.1 41.6H29.7L41.3 70.5ZM50 76L36.2 41.6H63.9Zm8.7-5.5L70.3 41.6H85.9Z" fill="#fbcd08" data-fill-palette-color="quaternary"></path></g></svg></g></svg></g></svg></g></svg></g><g></g></svg></g><defs></defs></svg><rect width="395.52" height="162.93588592447213" fill="none" stroke="none" visibility="hidden"></rect></g></svg></g></svg>